<svg xmlns="http://www.w3.org/2000/svg" width="1024" height="1024" viewBox="0 0 1024 1024">
  <rect width="1024" height="1024" fill="#ebebeb"/>
  <g stroke="#cfcfcf" stroke-width="1">
    <path d="M64 0V1024M128 0V1024M192 0V1024M256 0V1024M320 0V1024M384 0V1024M448 0V1024M512 0V1024M576 0V1024M640 0V1024M704 0V1024M768 0V1024M832 0V1024M896 0V1024M960 0V1024"/>
    <path d="M0 64H1024M0 128H1024M0 192H1024M0 256H1024M0 320H1024M0 384H1024M0 448H1024M0 512H1024M0 576H1024M0 640H1024M0 704H1024M0 768H1024M0 832H1024M0 896H1024M0 960H1024"/>
  </g>
  <text x="24" y="40" font-family="Arial, sans-serif" font-size="24" fill="#666">RUMORE demo background placeholder (PR-safe SVG)</text>
</svg>
